<svg xmlns="http://www.w3.org/2000/svg" version="1.1" xmlns:xlink="http://www.w3.org/1999/xlink" xmlns:svgjs="http://svgjs.dev/svgjs" width="1000" height="85" viewBox="0 0 1000 85"><g transform="matrix(1,0,0,1,-0.6060606060605096,0.01526705475697554)"><svg viewBox="0 0 396 34" data-background-color="#161618" preserveAspectRatio="xMidYMid meet" height="85" width="1000" xmlns="http://www.w3.org/2000/svg" xmlns:xlink="http://www.w3.org/1999/xlink"><g id="tight-bounds" transform="matrix(1,0,0,1,0.23999999999995225,-0.006106821902790216)"><svg viewBox="0 0 395.52 34.012213643805595" height="34.012213643805595" width="395.52"><g><svg viewBox="0 0 395.52 34.012213643805595" height="34.012213643805595" width="395.52"><g><svg viewBox="0 0 459.79364992190267 39.53934024375231" height="34.012213643805595" width="395.52"><g><rect width="3.5479587142096665" height="39.53934024375231" x="51.43784117049498" y="0" fill="#ffffff" opacity="1" stroke-width="0" stroke="transparent" fill-opacity="1" class="rect-r$-0" data-fill-palette-color="primary" rx="1%" id="r$-0" data-palette-color="#ffffff"></rect></g><g transform="matrix(1,0,0,1,64.27364992190272,0.09835656777052648)"><svg viewBox="0 0 395.52 39.34262710821125" height="39.34262710821125" width="395.52"><g id="textblocktransform"><svg viewBox="0 0 395.52 39.34262710821125" height="39.34262710821125" width="395.52" id="textblock"><g><svg viewBox="0 0 395.52 39.34262710821125" height="39.34262710821125" width="395.52"><g transform="matrix(1,0,0,1,0,0)"><svg width="395.52" viewBox="0.98 -37.99 396.59999999999997 39.45" height="39.34262710821125" data-palette-color="#ffffff"><path d="M17.77 1.46L17.77 1.46Q14.89 1.34 12.6 0.96 10.3 0.59 8.17-0.26 6.03-1.1 4.58-2.38 3.13-3.66 2.16-5.66 1.2-7.67 0.98-10.3L0.98-10.3Q0.98-10.77 1.46-10.84L1.46-10.84Q1.61-10.79 1.95-10.79L1.95-10.79Q3.98-10.79 8.11-10.89 12.23-10.99 14.26-10.99L14.26-10.99Q14.77-10.99 15.06-10.66 15.36-10.33 15.54-9.85 15.72-9.38 15.98-8.9 16.24-8.42 16.86-8.09 17.48-7.76 18.46-7.76L18.46-7.76Q19.65-7.76 20.57-8.44 21.48-9.11 21.48-10.25L21.48-10.25Q21.48-11.01 20.7-11.65 19.92-12.28 18.64-12.68 17.36-13.09 16.2-13.37 15.04-13.65 13.82-13.85 12.6-14.06 12.4-14.11L12.4-14.11Q6.47-15.72 3.87-18.12 1.27-20.51 1.27-24.66L1.27-24.66Q1.27-27.59 2.34-29.92 3.42-32.25 5.15-33.73 6.88-35.21 9.25-36.19 11.62-37.18 14.04-37.59 16.46-37.99 19.04-37.99L19.04-37.99Q25.9-37.99 29.98-35.45L29.98-35.45Q31.47-33.96 32.17-33.19 32.86-32.42 33.51-31.4 34.16-30.37 34.41-29.38 34.67-28.39 34.77-26.95L34.77-26.95 33.89-26.07Q28.88-25.88 22.66-25.88L22.66-25.88Q21.88-25.88 21.4-26.05 20.92-26.22 20.76-26.49 20.61-26.76 20.45-27.05 20.29-27.34 20.15-27.61 20.02-27.88 19.59-28.05 19.17-28.22 18.46-28.22L18.46-28.22Q18.26-28.22 17.83-28.15 17.41-28.08 16.83-27.92 16.26-27.76 15.84-27.43 15.43-27.1 15.43-26.66L15.43-26.66Q15.43-26.12 15.98-25.68 16.53-25.24 17.14-25.05 17.75-24.85 18.65-24.62 19.56-24.39 19.78-24.32L19.78-24.32Q25.1-22.97 26.12-22.66L26.12-22.66Q31.47-20.97 33.69-18.24L33.69-18.24Q35.74-15.7 35.74-11.87L35.74-11.87Q35.74-9.55 35.14-7.64 34.55-5.74 33.57-4.42 32.59-3.1 31.13-2.08 29.66-1.05 28.16-0.44 26.66 0.17 24.76 0.59 22.85 1 21.25 1.18 19.65 1.37 17.77 1.46ZM47.9 0.63L45.02 0.63Q44.33 0.63 43.43 0.67 42.53 0.71 42.04 0.73 41.55 0.76 40.93 0.72 40.31 0.68 39.99 0.55 39.67 0.42 39.32 0.15 38.96-0.12 38.8-0.59 38.64-1.05 38.54-1.73 38.43-2.42 38.43-3.37L38.43-3.37Q38.43-8.64 38.62-17.76 38.82-26.88 38.82-31.15L38.82-31.15Q38.82-36.43 39.35-36.72L39.35-36.72 48.44-36.72Q50.85-36.72 52.04-36.44 53.22-36.16 53.61-35.6 54-35.03 54-33.89L54-33.89Q54-33.54 53.95-32.56 53.9-31.57 53.9-30.91L53.9-30.91 53.9-29.79Q53.9-29 53.83-27.44 53.76-25.88 53.76-25.1L53.76-25.1 53.76-24.61Q53.81-24.46 53.81-24.22L53.81-24.22 54.78-24.22Q55.2-24.22 56.05-24.19 56.91-24.17 57.32-24.17L57.32-24.17Q58.44-24.17 58.98-24.32L58.98-24.32 58.98-34.47Q58.98-35.69 59.1-36.22 59.23-36.74 59.45-36.88 59.67-37.01 60.25-37.01L60.25-37.01Q60.57-37.01 61.28-36.99 61.98-36.96 62.3-36.96L62.3-36.96 64.11-37.04Q65.94-37.11 67.38-37.11L67.38-37.11Q74.02-37.11 74.02-35.64L74.02-35.64Q74.02-35.25 74.05-34.52 74.07-33.79 74.07-33.4L74.07-33.4Q74.07-32.54 74.05-30.91 74.02-29.27 74.02-28.42L74.02-28.42Q74.02-25.88 74.09-20.85 74.17-15.82 74.17-13.28L74.17-13.28Q74.17-13.06 74.14-12.73 74.12-12.4 74.12-12.3L74.12-12.3 74.12-11.13Q74.12-9.57 74.17-8.79L74.17-8.79 74.17-8.25Q74.12-8.15 74.12-7.96L74.12-7.96Q74.12-6.67 74.17-4.03 74.22-1.39 74.22-0.1L74.22-0.1Q74.05 0.78 69.53 0.78L69.53 0.78 59.37 0.78 58.64-0.24 58.64-1.86Q58.64-3.49 58.66-6.69 58.69-9.89 58.69-11.52L58.69-11.52Q58.69-12.08 58.55-12.29 58.42-12.5 58.01-12.5L58.01-12.5 57.13-12.5Q55.47-12.5 54.1-12.3L54.1-12.3Q54.1-10.28 54.05-6.21 54-2.15 54-0.1L54-0.1Q53.71 0.63 47.9 0.63L47.9 0.63ZM77.19-18.36L77.19-18.36 77.19-21.04Q77.44-24.46 78.68-27.28 79.93-30.1 81.84-32.03 83.76-33.96 86.27-35.29 88.79-36.62 91.54-37.23 94.28-37.84 97.21-37.84L97.21-37.84Q98.82-37.84 100.57-37.57 102.31-37.3 104.27-36.72 106.22-36.13 108.02-35 109.81-33.86 110.98-32.32L110.98-32.32Q113.4-29.37 114.48-26.14 115.57-22.9 115.57-18.95L115.57-18.95Q115.64-10.69 111.96-5.66L111.96-5.66 110.88-4.2Q109.47-2.25 106.83-0.94 104.19 0.37 101.56 0.87 98.92 1.37 96.24 1.37L96.24 1.37Q93.09 1.37 90.42 0.73 87.76 0.1 85.83-0.98 83.91-2.05 82.39-3.59 80.88-5.13 79.91-6.84 78.95-8.54 78.33-10.55 77.7-12.55 77.45-14.45 77.19-16.36 77.19-18.36ZM96.63-28.03L96.63-28.03Q95.62-28.03 94.83-27.56 94.04-27.1 93.54-26.44 93.04-25.78 92.67-24.67 92.3-23.56 92.13-22.67 91.96-21.78 91.87-20.42 91.77-19.07 91.76-18.32 91.74-17.58 91.74-16.41L91.74-16.41Q91.74-15.28 91.83-14.27 91.91-13.26 92.19-12.12 92.48-10.99 92.93-10.14 93.38-9.3 94.17-8.73 94.97-8.15 95.99-8.11L95.99-8.11Q97.07-8.11 97.9-8.46 98.73-8.81 99.29-9.36 99.85-9.91 100.24-10.84 100.63-11.77 100.84-12.62 101.04-13.48 101.15-14.75 101.26-16.02 101.29-16.93 101.31-17.85 101.31-19.24L101.31-19.24Q101.31-20.26 101.25-21.14 101.19-22.02 101.04-23.1 100.9-24.17 100.56-24.99 100.21-25.81 99.73-26.53 99.24-27.25 98.44-27.64 97.65-28.03 96.63-28.03ZM119.28-3.32L119.28-3.32 119.28-35.84Q119.28-36.01 119.44-36.13 119.6-36.25 119.94-36.3 120.28-36.35 120.54-36.38 120.79-36.4 121.27-36.41 121.75-36.43 121.92-36.43L121.92-36.43 141.74-36.43Q144.18-36.43 146.35-35.66 148.53-34.89 150.21-33.42 151.9-31.96 152.87-29.64 153.85-27.32 153.85-24.41L153.85-24.41Q153.85-22.27 153.35-20.48 152.85-18.7 152.03-17.44 151.21-16.19 150.03-15.19 148.85-14.18 147.61-13.57 146.38-12.96 144.89-12.54 143.4-12.11 142.14-11.91 140.89-11.72 139.49-11.62L139.49-11.62 134.81-11.62Q134.61-7.79 134.61-3.03L134.61-3.03 134.61-0.29Q134.54 0.59 133.78 0.59L133.78 0.59 119.91 0.59Q119.28-1.1 119.28-3.32ZM133.05-20.41L133.05-20.41 133.83-19.34Q134.83-19.34 135.75-19.48 136.66-19.63 137.54-20 138.42-20.36 139.06-20.94 139.69-21.51 140.08-22.4 140.47-23.29 140.47-24.41L140.47-24.41Q140.47-25.27 140.24-25.94 140.01-26.61 139.68-27.04 139.35-27.47 138.77-27.78 138.2-28.1 137.7-28.26 137.2-28.42 136.43-28.5 135.66-28.59 135.16-28.6 134.66-28.61 133.88-28.61L133.88-28.61Q133.05-28.22 133.05-20.41ZM155.02-18.26L155.02-18.26Q155.02-21.63 155.78-24.44 156.53-27.25 157.79-29.2 159.05-31.15 160.82-32.67 162.59-34.18 164.47-35.1 166.35-36.01 168.51-36.6 170.67-37.18 172.55-37.39 174.43-37.6 176.36-37.6L176.36-37.6Q177.77-37.6 179.13-37.48 180.48-37.35 182.18-37.05 183.88-36.74 185.35-36.11 186.83-35.47 188.19-34.56 189.54-33.64 190.54-32.19 191.54-30.74 191.98-28.91L191.98-28.91Q192.1-28.2 192.47-24.9L192.47-24.9Q192.37-24.17 190.91-24.17L190.91-24.17Q188.81-24.17 184.8-24.27 180.8-24.37 178.8-24.37L178.8-24.37Q178.51-24.46 178.33-24.76 178.16-25.05 178.1-25.39 178.04-25.73 177.91-26.12 177.77-26.51 177.57-26.82 177.36-27.12 176.83-27.33 176.31-27.54 175.53-27.54L175.53-27.54Q174.5-27.54 173.7-27.19 172.89-26.83 172.38-26.32 171.87-25.81 171.5-24.93 171.13-24.05 170.95-23.33 170.77-22.61 170.67-21.5 170.57-20.39 170.56-19.75 170.55-19.12 170.55-18.07L170.55-18.07Q170.55-17.75 170.57-17.29 170.6-16.82 170.6-16.65L170.6-16.65 170.6-15.92Q170.6-15.14 170.62-14.62 170.64-14.11 170.75-13.31 170.86-12.5 171.06-11.95 171.25-11.4 171.63-10.78 172.01-10.16 172.56-9.78 173.11-9.4 173.94-9.14 174.77-8.89 175.82-8.89L175.82-8.89Q178.53-8.89 180.26-9.42L180.26-9.42 180.26-12.4 179.19-12.4 179.19-12.35 177.43-12.35Q177.24-12.35 176.74-12.33 176.24-12.3 175.92-12.3L175.92-12.3 175.04-13.28 175.04-20.02Q175.04-20.65 175.92-21.39L175.92-21.39 177.68-21.39Q179.51-21.39 182.12-21.34 184.73-21.29 186.12-21.29L186.12-21.29 188.08-21.29Q189.49-21.29 190.29-21.26 191.08-21.24 192.06-21.03 193.03-20.83 193.35-20.41L193.35-20.41Q193.35-17.21 193.2-11.08 193.06-4.96 193.06-2.2L193.06-2.2Q193.06-2.12 193.08-1.97 193.11-1.81 193.11-1.71L193.11-1.71 193.11-1.17Q192.28-0.2 187.69 0.54 183.1 1.27 179.97 1.27L179.97 1.27 179.34 1.27Q178.65 1.27 177.31 1.37 175.97 1.46 175.28 1.46L175.28 1.46Q165.44 1.46 160.23-3.8 155.02-9.06 155.02-18.26ZM197.5-32.62L197.5-32.62Q197.5-36.6 198.33-37.06L198.33-37.06Q198.57-37.01 199.01-37.01L199.01-37.01 199.79-37.01Q200.55-37.01 202.28-37.06 204.02-37.11 204.92-37.11L204.92-37.11Q208.39-37.11 210.52-36.83 212.66-36.55 212.93-35.79L212.93-35.79 212.63-10.6 213.17-10.6Q215.12-10.69 215.91-10.68 216.69-10.67 218.77-10.58 220.86-10.5 222.79-10.5L222.79-10.5Q224.38-10.5 225.15-10.31 225.92-10.13 225.92-9.57L225.92-9.57 225.92-0.2Q225.6 0.68 215.03 0.68L215.03 0.68 198.13 0.68Q197.55-0.17 197.55-2.05L197.55-2.05 197.55-8.98Q197.55-12.04 197.59-18.02 197.64-24 197.64-27.05L197.64-27.05Q197.64-27.61 197.57-29.54 197.5-31.47 197.5-32.62ZM224.69 0L224.69 0Q226.21-5.59 228.04-11.35 229.87-17.11 232.59-25.13 235.31-33.15 236.31-36.23L236.31-36.23Q236.61-36.72 236.7-36.82L236.7-36.82 240.81-36.82Q242.25-36.82 245.05-36.87 247.86-36.91 249.3-36.91L249.3-36.91 253.4-36.91Q253.77-36.91 254.01-36.9 254.26-36.89 254.6-36.84 254.94-36.79 255.15-36.69 255.36-36.6 255.5-36.4 255.65-36.21 255.65-35.94L255.65-35.94 266.9-0.27Q266.9 0.22 266.55 0.4 266.2 0.59 265.22 0.59L265.22 0.59 262.97 0.59Q262 0.59 260.07 0.61 258.14 0.63 257.16 0.63L257.16 0.63Q256.87 0.63 255.98 0.67 255.09 0.71 254.48 0.7 253.87 0.68 253.12 0.62 252.38 0.56 251.93 0.35 251.47 0.15 251.35-0.2L251.35-0.2 251.35-1.81Q251.11-3.03 250.5-4.05 249.89-5.08 249.2-5.08L249.2-5.08 240.81-5.08 239.54 0.1Q239.27 0.68 236.8 0.68L236.8 0.68 234.85 0.68Q233.8 0.68 231.72 0.76 229.65 0.83 228.6 0.83L228.6 0.83 227.91 0.83Q227.52 0.83 226.68 0.85 225.84 0.88 225.38 0.88L225.38 0.88Q225.18 0.68 224.69 0ZM243.59-23.29L241.64-14.82 242.32-13.67 243.93-13.67Q245.88-13.67 247.51-13.9 249.13-14.14 249.13-14.65L249.13-14.65 245.98-28.71Q245.54-28.71 244.8-27.05 244.05-25.39 243.59-23.29L243.59-23.29ZM317.32-9.13L317.32-9.13Q317.32-8.69 317.37-7.78 317.41-6.86 317.44-6.03 317.46-5.2 317.48-4.19 317.49-3.17 317.4-2.36 317.32-1.54 317.15-0.82 316.97-0.1 316.62 0.29 316.27 0.68 315.75 0.68L315.75 0.68 304.62 0.68Q303.45-0.22 303.45-6.05L303.45-6.05Q303.45-8.18 303.47-11.17 303.5-14.16 303.5-15.43L303.5-15.43 303.5-17.14Q303.5-17.36 303.46-17.98 303.42-18.6 303.45-18.95L303.45-18.95Q302.47-15.41 301.06-8.81 299.64-2.22 299.1 0L299.1 0Q298.86 0.68 296.86 0.68L296.86 0.68 288.21 0.68Q286.63 0.68 286.36-0.15L286.36-0.15 284.02-10.35Q283.7-11.91 283.32-13.6 282.94-15.28 282.43-17.43 281.92-19.58 281.67-20.61L281.67-20.61Q281.38-12.79 281.38-8.69L281.38-8.69 281.38-4.39Q281.38-1.51 281.43-0.05L281.43-0.05Q281.28 0.49 280.89 0.49L280.89 0.49 278.6 0.49Q277.16 0.49 274.37 0.51 271.59 0.54 270.15 0.54L270.15 0.54Q268.83 0.54 268.83 0.1L268.83 0.1 268.83-36.13Q268.83-36.35 268.94-36.51 269.05-36.67 269.28-36.76 269.51-36.84 269.73-36.89 269.95-36.94 270.3-36.95 270.64-36.96 270.86-36.98 271.08-36.99 271.42-36.98 271.76-36.96 271.86-36.96L271.86-36.96 274.74-36.96Q281.7-36.96 284.54-36.77 287.38-36.57 288.9-36.57L288.9-36.57Q289.48-33.3 290.75-26.86L290.75-26.86 292.61-17.14 296.52-36.87Q296.52-36.87 296.71-36.82 296.91-36.77 297-36.77L297-36.77Q299.62-36.77 304.72-36.84 309.82-36.91 312.43-36.91L312.43-36.91 316.05-36.91Q316.73-36.84 316.73-35.55L316.73-35.55Q317.27-11.89 317.32-9.13ZM319.95-18.36L319.95-18.36 319.95-21.04Q320.19-24.46 321.44-27.28 322.69-30.1 324.6-32.03 326.52-33.96 329.03-35.29 331.55-36.62 334.29-37.23 337.04-37.84 339.97-37.84L339.97-37.84Q341.58-37.84 343.33-37.57 345.07-37.3 347.03-36.72 348.98-36.13 350.77-35 352.57-33.86 353.74-32.32L353.74-32.32Q356.16-29.37 357.24-26.14 358.33-22.9 358.33-18.95L358.33-18.95Q358.4-10.69 354.72-5.66L354.72-5.66 353.64-4.2Q352.23-2.25 349.59-0.94 346.95 0.37 344.32 0.87 341.68 1.37 338.99 1.37L338.99 1.37Q335.84 1.37 333.18 0.73 330.52 0.1 328.59-0.98 326.66-2.05 325.15-3.59 323.64-5.13 322.67-6.84 321.71-8.54 321.09-10.55 320.46-12.55 320.21-14.45 319.95-16.36 319.95-18.36ZM339.38-28.03L339.38-28.03Q338.38-28.03 337.59-27.56 336.8-27.1 336.3-26.44 335.8-25.78 335.43-24.67 335.06-23.56 334.89-22.67 334.72-21.78 334.62-20.42 334.53-19.07 334.51-18.32 334.5-17.58 334.5-16.41L334.5-16.41Q334.5-15.28 334.59-14.27 334.67-13.26 334.95-12.12 335.23-10.99 335.69-10.14 336.14-9.3 336.93-8.73 337.72-8.15 338.75-8.11L338.75-8.11Q339.82-8.11 340.65-8.46 341.48-8.81 342.05-9.36 342.61-9.91 343-10.84 343.39-11.77 343.6-12.62 343.8-13.48 343.91-14.75 344.02-16.02 344.05-16.93 344.07-17.85 344.07-19.24L344.07-19.24Q344.07-20.26 344.01-21.14 343.95-22.02 343.8-23.1 343.66-24.17 343.31-24.99 342.97-25.81 342.48-26.53 342-27.25 341.2-27.64 340.41-28.03 339.38-28.03ZM397.39 0.1L397.39 0.1Q396.85 0.63 395.13 0.73 393.41 0.83 390.9 0.68 388.38 0.54 388.21 0.54L388.21 0.54Q386.55 0.54 385.82 0.49L385.82 0.49 383.38 0.49Q382.84 0.32 382.47-1.11 382.11-2.54 381.75-5.21 381.4-7.89 381.37-8.06L381.37-8.06Q381.28-10.47 380.59-11.24 379.91-12.01 378.1-12.01L378.1-12.01 377.03-12.01 377.03-0.1Q376.98 0.2 376.52 0.39 376.05 0.59 375.19 0.65 374.32 0.71 373.65 0.72 372.98 0.73 371.88 0.71 370.78 0.68 370.53 0.68L370.53 0.68 367.02 0.68Q364.04 0.68 362.53 0.73L362.53 0.73Q362.18 0.59 361.84 0.39L361.84 0.39 361.84-36.04Q361.84-36.72 363.8-36.72L363.8-36.72 385.08-36.72Q390.63-36.57 393.52-34.08 396.41-31.59 396.41-27.05L396.41-27.05Q396.41-21.14 390.46-18.41L390.46-18.41Q391.55-18.07 392.43-17.46 393.31-16.85 393.9-16.15 394.48-15.45 394.92-14.48 395.36-13.5 395.61-12.65 395.85-11.79 396.03-10.62 396.22-9.45 396.29-8.59 396.36-7.74 396.47-6.56 396.58-5.37 396.66-4.69L396.66-4.69 396.66-2.54Q396.73-2.15 397.11-1.44 397.49-0.73 397.58-0.39L397.58-0.39Q397.58 0.1 397.39 0.1ZM376.88-26.37L376.88-26.37Q376.88-24.9 376.91-24.19 376.93-23.49 377.17-22.34 377.42-21.19 377.91-20.7L377.91-20.7Q378.93-20.7 379.85-20.92 380.76-21.14 381.62-21.63 382.47-22.12 382.97-23.08 383.47-24.05 383.47-25.39L383.47-25.39Q383.47-26.15 383.21-26.72 382.94-27.29 382.42-27.64 381.91-27.98 381.41-28.19 380.91-28.39 380.19-28.48 379.47-28.56 379.05-28.59 378.64-28.61 378.05-28.61L378.05-28.61 377.47-28.61Q377.1-28.44 376.99-27.93 376.88-27.42 376.88-26.37Z" opacity="1" transform="matrix(1,0,0,1,0,0)" fill="#ffffff" class="wordmark-text-0" data-fill-palette-color="primary" id="text-0"></path></svg></g></svg></g></svg></g></svg></g><g transform="matrix(1,0,0,1,0,0.09835656777052648)"><svg viewBox="0 0 42.14999113329689 39.34262710821125" height="39.34262710821125" width="42.14999113329689"><g><svg xmlns="http://www.w3.org/2000/svg" xmlns:xlink="http://www.w3.org/1999/xlink" version="1.1" x="0" y="0" viewBox="5 11 89.9939713089972 84" enable-background="new 0 0 100 100" xml:space="preserve" height="39.34262710821125" width="42.14999113329689" class="icon-icon-0" data-fill-palette-color="accent" id="icon-0"><path d="M94.4 27.4c-0.7-1.1-1.9-1.9-3.2-1.9L28 22.6 25.8 14c-0.5-1.8-2-3-3.9-3H9c-2.2 0-4 1.8-4 4s1.8 4 4 4h9.8l11 42.8L27.1 73c-0.3 1.2 0 2.5 0.7 3.4 0.8 1 1.9 1.5 3.1 1.5h49c2.2 0 4-1.8 4-4s-1.8-4-4-4H36.1l1.1-4.6 40-1.9c1.5-0.1 2.8-1 3.4-2.3l14-30C95.2 30 95.1 28.6 94.4 27.4zM61 32.1l7.4 0.3L66.3 56 61 56.2V32.1zM53 56.6l-5.2 0.2-2.3-25.4 7.5 0.3V56.6zM37.4 31.1l2.4 26.2-2.7 0.1-6.7-26.6L37.4 31.1zM74.4 55.6L74.4 55.6l2-22.8 8.5 0.4L74.4 55.6z" fill="#ffffff" data-fill-palette-color="accent"></path><circle cx="33.5" cy="87.5" r="7.5" fill="#ffffff" data-fill-palette-color="accent"></circle><circle cx="78.5" cy="87.5" r="7.5" fill="#ffffff" data-fill-palette-color="accent"></circle></svg></g></svg></g></svg></g></svg></g><defs></defs></svg><rect width="395.52" height="34.012213643805595" fill="none" stroke="none" visibility="hidden"></rect></g></svg></g></svg>